<svg xmlns="http://www.w3.org/2000/svg" viewBox="0 0 496 512"><path fill="white" d="M165.9 397.4c0 2-2.3 3.6-5.2 3.6-2.9 0-5.2-1.6-5.2-3.6 0-2 2.3-3.6 5.2-3.6 2.9 0 5.2 1.6 5.2 3.6zm-33.8-10.1c-.7 1.6.8 3.5 3.3 4.1 2.5.6 5.2-.2 5.9-1.8.7-1.6-.8-3.5-3.3-4.1-2.5-.6-5.2.2-5.9 1.8zm44.8-1.7c-2.9.8-4.8 3.1-4.3 5.1.5 2 3.1 3 6 .2 2.9-.8 4.8-3.1 4.3-5.1-.5-2-3.1-3-6-.2zm-68.4-6.4c-1.2 1.4-.4 3.7 1.8 5.1 2.2 1.4 4.9 1.2 6.1-.2 1.2-1.4.4-3.7-1.8-5.1-2.2-1.4-4.9-1.2-6.1.2zM248 8C111 8 0 119 0 256c0 110.3 71.3 203.9 170.5 237.2 12.5 2.3 17.1-5.4 17.1-12v-43.3c-69.4 15.1-84-33.4-84-33.4-11.4-29-27.9-36.7-27.9-36.7-22.8-15.6 1.7-15.3 1.7-15.3 25.2 1.8 38.5 25.8 38.5 25.8 22.4 38.4 58.8 27.3 73.2 20.9 2.3-16.2 8.8-27.4 16-33.7-55.4-6.3-113.8-27.7-113.8-123.5 0-27.3 9.8-49.5 25.8-66.9-2.6-6.3-11.2-31.7 2.5-66.1 0 0 21-6.7 68.8 25.5 20-5.6 41.5-8.4 62.8-8.5 21.3.1 42.8 2.9 62.8 8.5 47.7-32.2 68.6-25.5 68.6-25.5 13.8 34.4 5.2 59.8 2.6 66.1 16 17.4 25.8 39.6 25.8 66.9 0 95.9-58.5 117.1-114.2 123.3 9 7.7 17 23 17 46.3v68.7c0 6.7 4.5 14.4 17.2 12C424.8 459.9 496 366.3 496 256 496 119 385 8 248 8z"/></svg>