<svg xmlns="http://www.w3.org/2000/svg" viewBox="0 0 448 512"><path fill="white" d="M224,202.66A53.34,53.34,0,1,0,277.34,256,53.38,53.38,0,0,0,224,202.66Zm124.71-41a54,54,0,0,0-30.58-30.58C295.65,122.67,256,120,224,120s-71.65,2.67-94.13,11.1A54,54,0,0,0,99.29,161.7C90.86,184.18,88.19,223.83,88.19,256s2.67,71.65,11.1,94.13A54,54,0,0,0,129.87,380.7c22.48,8.43,62.13,11.1,94.13,11.1s71.65-2.67,94.13-11.1a54,54,0,0,0,30.58-30.58c8.43-22.48,11.1-62.13,11.1-94.13S357.14,184.18,348.71,161.7ZM224,338.66A82.66,82.66,0,1,1,306.66,256,82.75,82.75,0,0,1,224,338.66ZM336,176a19.2,19.2,0,1,1,19.2-19.2A19.19,19.19,0,0,1,336,176Z"/></svg>