<svg xmlns="http://www.w3.org/2000/svg" viewBox="0 0 496 512"><path fill="white" d="M248,8C111.033,8,0,119.033,0,256s111.033,248,248,248s248-111.033,248-248S384.967,8,248,8z M366.686,169.326l-48.971,230.373c-3.714,16.611-13.451,20.762-27.286,12.949l-75.273-55.513l-36.285,34.949c-4.004,4.004-7.359,7.359-15.093,7.359l5.387-76.184L314.116,191.4c6.002-5.002-1.312-7.766-9.303-2.764L162.841,293.21l-73.975-23.09c-16.073-5.004-16.354-15.873,3.352-23.494L351.593,150.43C364.67,145.754,375.443,154.219,366.686,169.326z"/></svg>