<svg xmlns="http://www.w3.org/2000/svg" viewBox="0 0 576 512"><path fill="white" d="M549.655 124.083c-6.281-23.65-24.776-42.267-48.448-48.556C460.412 64 288 64 288 64s-172.412 0-213.207 11.527c-23.672 6.289-42.167 24.906-48.448 48.556C16 165.607 16 256 16 256s0 90.393 10.345 131.917c6.281 23.65 24.776 42.267 48.448 48.556C115.588 448 288 448 288 448s172.412 0 213.207-11.527c23.672-6.289 42.167-24.906 48.448-48.556C560 346.393 560 256 560 256s0-90.393-10.345-131.917zM232 334.058V177.94L367.5 256 232 334.058z"/></svg>